<?xml version="1.0" encoding="UTF-8" standalone="no"?>
<svg
   xmlns:dc="http://purl.org/dc/elements/1.1/"
   xmlns:cc="http://creativecommons.org/ns#"
   xmlns:rdf="http://www.w3.org/1999/02/22-rdf-syntax-ns#"
   xmlns:svg="http://www.w3.org/2000/svg"
   xmlns="http://www.w3.org/2000/svg"
   viewBox="0 0 2560 1440"
   height="1440"
   width="2560"
   xml:space="preserve"
   id="svg2"
   version="1.1"><metadata
     id="metadata8"><rdf:RDF><cc:Work
         rdf:about=""><dc:format>image/svg+xml</dc:format><dc:type
           rdf:resource="http://purl.org/dc/dcmitype/StillImage" /><dc:title></dc:title></cc:Work></rdf:RDF></metadata><defs
     id="defs6"><clipPath
       id="clipPath22"
       clipPathUnits="userSpaceOnUse"><path
         id="path20"
         d="M 0,1080 H 1920 V 0 H 0 Z" /></clipPath><clipPath
       id="clipPath38"
       clipPathUnits="userSpaceOnUse"><path
         id="path36"
         d="M 0,1080 H 1920 V 0 H 0 Z" /></clipPath><clipPath
       id="clipPath46"
       clipPathUnits="userSpaceOnUse"><path
         id="path44"
         d="m 638,297.621 h 447.98 V 240.536 H 638 Z" /></clipPath><clipPath
       id="clipPath66"
       clipPathUnits="userSpaceOnUse"><path
         id="path64"
         d="m 1773,426 h 146.984 v 653.849 H 1773 Z" /></clipPath><clipPath
       id="clipPath110"
       clipPathUnits="userSpaceOnUse"><path
         id="path108"
         d="m 851,355 h 212.782 v 22.399 H 851 Z" /></clipPath><clipPath
       id="clipPath130"
       clipPathUnits="userSpaceOnUse"><path
         id="path128"
         d="M 0,1080 H 1920 V 0 H 0 Z" /></clipPath><linearGradient
       id="linearGradient138"
       spreadMethod="pad"
       gradientTransform="matrix(412.428,339.597,-339.597,412.428,-410.49846,741.993)"
       gradientUnits="userSpaceOnUse"
       y2="0"
       x2="1"
       y1="0"
       x1="0"><stop
         id="stop134"
         offset="0"
         style="stop-opacity:1;stop-color:#11ff8d" /><stop
         id="stop136"
         offset="1"
         style="stop-opacity:1;stop-color:#2fc0cb" /></linearGradient><linearGradient
       id="linearGradient148"
       spreadMethod="pad"
       gradientTransform="matrix(100.611,82.8443,-82.8443,100.611,-252.1832,874.206)"
       gradientUnits="userSpaceOnUse"
       y2="0"
       x2="1"
       y1="0"
       x1="0"><stop
         id="stop144"
         offset="0"
         style="stop-opacity:1;stop-color:#11ff8d" /><stop
         id="stop146"
         offset="1"
         style="stop-opacity:1;stop-color:#2fc0cb" /></linearGradient><linearGradient
       id="linearGradient158"
       spreadMethod="pad"
       gradientTransform="matrix(24.4306,20.1163,-20.1163,24.4306,-212.7762,903.407)"
       gradientUnits="userSpaceOnUse"
       y2="0"
       x2="1"
       y1="0"
       x1="0"><stop
         id="stop154"
         offset="0"
         style="stop-opacity:1;stop-color:#11ff8d" /><stop
         id="stop156"
         offset="1"
         style="stop-opacity:1;stop-color:#2fc0cb" /></linearGradient><clipPath
       id="clipPath288"
       clipPathUnits="userSpaceOnUse"><path
         id="path286"
         d="m 1073.04,1025 c -2.252,0 -4.712,-1.712 -5.494,-3.824 v 0 L 954.707,716.707 c -0.783,-2.112 0.409,-3.823 2.661,-3.823 v 0 h 19.306 c 2.251,0 4.712,1.711 5.494,3.823 v 0 l 112.839,304.469 c 0.782,2.112 -0.409,3.824 -2.662,3.824 v 0 z" /></clipPath><clipPath
       id="clipPath322"
       clipPathUnits="userSpaceOnUse"><path
         id="path320"
         d="M 0,1080 H 1920 V 0 H 0 Z" /></clipPath></defs><g
     transform="matrix(1.3333333,0,0,-1.3333333,0,1440)"
     id="g10"><path
       id="path12"
       style="fill:#0f0c2d;fill-opacity:1;fill-rule:nonzero;stroke:none"
       d="m 0.5,0.5 h 1919 V 1079.499 H 0.5 Z" /><path
       id="path14"
       style="fill:#000000;fill-opacity:1;fill-rule:nonzero;stroke:none"
       d="M 0,0 H 1920 V 1080 H 0 Z M 1,1079 H 1919 V 1 H 1 Z" /><g
       id="g16"><g
         clip-path="url(#clipPath22)"
         id="g18"><g
           transform="translate(1250.543,242.9141)"
           id="g24" /></g></g><g
       id="g32"><g
         clip-path="url(#clipPath38)"
         id="g34"><g
           id="g40"><g
             id="g42" /><g
             id="g54"><g
               style="opacity:0.5"
               id="g52"
               clip-path="url(#clipPath46)"><g
                 id="g50"
                 transform="translate(1068.9785,240.5361)" /></g></g></g></g></g><g
       id="g60"><g
         clip-path="url(#clipPath66)"
         id="g62"><g
           transform="translate(1821.3496,460.7881)"
           id="g68"><path
             id="path70"
             style="fill:none;stroke:#dc9850;stroke-width:15;stroke-linecap:butt;stroke-linejoin:miter;stroke-miterlimit:4;stroke-dasharray:none;stroke-opacity:1"
             d="M 0,0 421.611,421.611" /></g><g
           transform="translate(1821.3496,924.9473)"
           id="g72"><path
             id="path74"
             style="fill:none;stroke:#dc9850;stroke-width:15;stroke-linecap:butt;stroke-linejoin:miter;stroke-miterlimit:4;stroke-dasharray:none;stroke-opacity:1"
             d="M 0,0 421.611,421.611" /></g><g
           transform="translate(1821.3496,866.9272)"
           id="g76"><path
             id="path78"
             style="fill:none;stroke:#dc9850;stroke-width:15;stroke-linecap:butt;stroke-linejoin:miter;stroke-miterlimit:4;stroke-dasharray:none;stroke-opacity:1"
             d="M 0,0 421.611,421.611" /></g><g
           transform="translate(1821.3496,808.9072)"
           id="g80"><path
             id="path82"
             style="fill:none;stroke:#dc9850;stroke-width:15;stroke-linecap:butt;stroke-linejoin:miter;stroke-miterlimit:4;stroke-dasharray:none;stroke-opacity:1"
             d="M 0,0 421.611,421.611" /></g><g
           transform="translate(1821.3496,750.8872)"
           id="g84"><path
             id="path86"
             style="fill:none;stroke:#dc9850;stroke-width:15;stroke-linecap:butt;stroke-linejoin:miter;stroke-miterlimit:4;stroke-dasharray:none;stroke-opacity:1"
             d="M 0,0 421.611,421.611" /></g><g
           transform="translate(1821.3496,692.8677)"
           id="g88"><path
             id="path90"
             style="fill:none;stroke:#dc9850;stroke-width:15;stroke-linecap:butt;stroke-linejoin:miter;stroke-miterlimit:4;stroke-dasharray:none;stroke-opacity:1"
             d="M 0,0 421.611,421.611" /></g><g
           transform="translate(1821.3496,634.8477)"
           id="g92"><path
             id="path94"
             style="fill:none;stroke:#dc9850;stroke-width:15;stroke-linecap:butt;stroke-linejoin:miter;stroke-miterlimit:4;stroke-dasharray:none;stroke-opacity:1"
             d="M 0,0 421.611,421.611" /></g><g
           transform="translate(1821.3496,576.8276)"
           id="g96"><path
             id="path98"
             style="fill:none;stroke:#dc9850;stroke-width:15;stroke-linecap:butt;stroke-linejoin:miter;stroke-miterlimit:4;stroke-dasharray:none;stroke-opacity:1"
             d="M 0,0 421.611,421.611" /></g><g
           transform="translate(1821.3496,518.8076)"
           id="g100"><path
             id="path102"
             style="fill:none;stroke:#dc9850;stroke-width:15;stroke-linecap:butt;stroke-linejoin:miter;stroke-miterlimit:4;stroke-dasharray:none;stroke-opacity:1"
             d="M 0,0 421.611,421.611" /></g></g></g><g
       id="g104"><g
         clip-path="url(#clipPath110)"
         id="g106"><g
           transform="translate(872.1992,355)"
           id="g112" /><g
           transform="translate(957.3911,355)"
           id="g116" /><g
           transform="translate(1042.583,355)"
           id="g120" /></g></g><g
       id="g124"><g
         clip-path="url(#clipPath130)"
         id="g126"><g
           transform="translate(417.6592,50.166)"
           id="g132"><path
             id="path140"
             style="fill:none;stroke:url(#linearGradient138);stroke-width:5;stroke-linecap:butt;stroke-linejoin:miter;stroke-miterlimit:10;stroke-dasharray:none;stroke-opacity:1"
             d="m 0,0 c -92.899,-112.823 -259.67,-128.975 -372.494,-36.075 -112.822,92.899 -128.974,259.67 -36.074,372.493 92.899,112.823 259.67,128.975 372.493,36.075 C 76.748,279.594 92.899,112.823 0,0 Z" /></g><g
           transform="translate(264.1572,174.7051)"
           id="g142"><path
             id="path150"
             style="fill:none;stroke:url(#linearGradient148);stroke-width:5;stroke-linecap:butt;stroke-linejoin:miter;stroke-miterlimit:10;stroke-dasharray:none;stroke-opacity:1"
             d="m 0,0 c -21.999,-26.718 -61.492,-30.542 -88.208,-8.543 -26.718,21.999 -30.542,61.491 -8.543,88.209 21.999,26.717 61.491,30.542 88.209,8.543 C 18.174,66.209 22,26.717 0,0 Z" /></g><g
           transform="translate(228.1558,207.5957)"
           id="g152"><path
             id="path160"
             style="fill:none;stroke:url(#linearGradient158);stroke-width:3;stroke-linecap:butt;stroke-linejoin:miter;stroke-miterlimit:10;stroke-dasharray:none;stroke-opacity:1"
             d="m 0,0 c -5.028,-6.106 -14.055,-6.981 -20.162,-1.952 -6.107,5.028 -6.981,14.055 -1.953,20.161 5.029,6.107 14.055,6.981 20.162,1.953 C 4.154,15.134 5.028,6.106 0,0 Z" /></g><g
           transform="translate(158.1328,294.7266)"
           id="g162"><path
             id="path164"
             style="fill:#03f982;fill-opacity:1;fill-rule:nonzero;stroke:none"
             d="m 0,0 c 7.539,10.207 22.826,14.029 34.57,16.801 6.541,1.543 13.193,2.584 19.895,3.091 6.426,0.485 13.177,0.958 19.054,-2.144 1.706,-0.9 3.224,1.689 1.514,2.591 -5.577,2.942 -11.594,3.067 -17.771,2.737 C 49.358,22.654 41.476,21.511 33.773,19.693 21.119,16.708 5.517,12.492 -2.59,1.515 -3.738,-0.04 -1.136,-1.537 0,0" /></g><g
           transform="translate(133.7368,324.2559)"
           id="g166"><path
             id="path168"
             style="fill:#07ffa0;fill-opacity:1;fill-rule:nonzero;stroke:none"
             d="m 0,0 c 7.274,7.066 15.781,12.327 25.363,15.644 1.813,0.627 1.034,3.526 -0.798,2.892 C 14.495,15.051 5.523,9.547 -2.121,2.121 -3.508,0.773 -1.386,-1.347 0,0" /></g><g
           transform="translate(170.6216,345.1885)"
           id="g170"><path
             id="path172"
             style="fill:#03f982;fill-opacity:1;fill-rule:nonzero;stroke:none"
             d="m 0,0 c 8.156,3.151 16.545,5.286 25.231,6.325 1.894,0.228 1.916,3.23 0,3 C 16.273,8.253 7.622,6.146 -0.797,2.893 -2.579,2.204 -1.805,-0.698 0,0" /></g><g
           transform="translate(209.7378,352.0029)"
           id="g174"><path
             id="path176"
             style="fill:#00f1ab;fill-opacity:1;fill-rule:nonzero;stroke:none"
             d="M 0,0 C 9.094,1.43 18.059,0.749 26.863,-1.927 28.714,-2.49 29.506,0.405 27.661,0.966 18.33,3.802 8.833,4.406 -0.797,2.893 -2.699,2.594 -1.892,-0.298 0,0" /></g><g
           transform="translate(111.627,357.2656)"
           id="g178"><path
             id="path180"
             style="fill:#07ffa0;fill-opacity:1;fill-rule:nonzero;stroke:none"
             d="m 0,0 c 7.634,7.531 16.641,13.034 26.837,16.359 1.828,0.596 1.046,3.495 -0.797,2.893 C 15.37,15.772 5.869,10.005 -2.121,2.121 -3.498,0.764 -1.376,-1.357 0,0" /></g><g
           transform="translate(151.146,380.167)"
           id="g182"><path
             id="path184"
             style="fill:#01ff8c;fill-opacity:1;fill-rule:nonzero;stroke:none"
             d="m 0,0 c 5.11,3.773 10.86,6.198 17.176,7.027 1.887,0.248 1.912,3.251 0,3 C 10.321,9.127 4.061,6.707 -1.514,2.59 -3.051,1.456 -1.556,-1.149 0,0" /></g><g
           transform="translate(179.397,388.8633)"
           id="g186"><path
             id="path188"
             style="fill:#03f982;fill-opacity:1;fill-rule:nonzero;stroke:none"
             d="m 0,0 c 6.233,2.912 12.832,4.001 19.678,3.396 1.922,-0.169 1.911,2.832 0,3 C 12.291,7.05 5.196,5.726 -1.514,2.59 -3.262,1.773 -1.74,-0.813 0,0" /></g><g
           transform="translate(213.3237,392.2959)"
           id="g190"><path
             id="path192"
             style="fill:#00f1ab;fill-opacity:1;fill-rule:nonzero;stroke:none"
             d="M 0,0 C 9.071,2.169 20.339,0.318 29.252,-1.618 31.134,-2.027 31.938,0.864 30.05,1.274 20.436,3.363 8.914,5.215 -0.797,2.894 -2.674,2.444 -1.879,-0.449 0,0" /></g><g
           transform="translate(87.25,387.3613)"
           id="g194"><path
             id="path196"
             style="fill:#07ffa0;fill-opacity:1;fill-rule:nonzero;stroke:none"
             d="m 0,0 c 8.657,8.466 18.712,15.098 29.936,19.648 1.766,0.716 0.994,3.62 -0.797,2.893 C 17.416,17.789 6.924,10.967 -2.121,2.121 -3.504,0.77 -1.382,-1.352 0,0" /></g><g
           transform="translate(131.0703,415.4707)"
           id="g198"><path
             id="path200"
             style="fill:#01ff8c;fill-opacity:1;fill-rule:nonzero;stroke:none"
             d="m 0,0 c 8.086,4.77 16.804,7.489 26.173,8.108 1.917,0.127 1.931,3.128 0,3 C 16.303,10.456 7.007,7.616 -1.514,2.591 -3.176,1.61 -1.668,-0.983 0,0" /></g><g
           transform="translate(217.1841,431.1543)"
           id="g202"><path
             id="path204"
             style="fill:#00f1ab;fill-opacity:1;fill-rule:nonzero;stroke:none"
             d="m 0,0 c 11.495,2.864 23.136,2.72 34.562,-0.409 1.864,-0.511 2.66,2.382 0.797,2.892 C 23.439,5.748 11.193,5.881 -0.797,2.893 -2.67,2.426 -1.877,-0.468 0,0" /></g><g
           transform="translate(169.8604,427.377)"
           id="g206"><path
             id="path208"
             style="fill:#03f982;fill-opacity:1;fill-rule:nonzero;stroke:none"
             d="m 0,0 c 9.601,3.721 20.818,3.607 30.986,3.395 1.931,-0.041 1.931,2.959 0,3 C 20.608,6.611 9.021,6.698 -0.797,2.894 -2.579,2.203 -1.804,-0.699 0,0" /></g><g
           transform="translate(198.8608,120.2178)"
           id="g210"><path
             id="path212"
             style="fill:#15e8e3;fill-opacity:1;fill-rule:nonzero;stroke:none"
             d="m 0,0 c 26.576,-2.16 53.18,4.146 75.981,17.961 1.649,0.999 0.144,3.595 -1.514,2.591 C 52.077,6.986 26.089,0.879 0,3 -1.924,3.156 -1.914,0.155 0,0" /></g><g
           transform="translate(189.5474,81.7217)"
           id="g214"><path
             id="path216"
             style="fill:#15e8e3;fill-opacity:1;fill-rule:nonzero;stroke:none"
             d="M 0,0 C 10.643,-2.478 21.388,-2.614 32.094,-0.433 33.985,-0.048 33.185,2.845 31.297,2.46 21.092,0.38 10.941,0.531 0.797,2.893 -1.081,3.33 -1.882,0.438 0,0" /></g><g
           transform="translate(232.7979,82.9736)"
           id="g218"><path
             id="path220"
             style="fill:#23c9c9;fill-opacity:1;fill-rule:nonzero;stroke:none"
             d="M 0,0 C 10.037,0.584 19.806,2.521 29.292,5.862 31.101,6.5 30.322,9.399 28.494,8.756 19.249,5.498 9.792,3.569 0,3 -1.919,2.888 -1.932,-0.113 0,0" /></g><g
           transform="translate(295.3501,110.1055)"
           id="g222"><path
             id="path224"
             style="fill:#15e2ed;fill-opacity:1;fill-rule:nonzero;stroke:none"
             d="m 0,0 c -6.275,-4.878 -12.933,-9.176 -19.932,-12.939 -1.701,-0.915 -0.188,-3.505 1.514,-2.59 7.233,3.888 14.058,8.369 20.54,13.408 C 3.644,-0.937 1.507,1.172 0,0" /></g><g
           transform="translate(184.9785,42.1436)"
           id="g226"><path
             id="path228"
             style="fill:#15e8e3;fill-opacity:1;fill-rule:nonzero;stroke:none"
             d="M 0,0 C 11.192,-1.17 24.236,-2.255 35.277,0.343 37.155,0.785 36.36,3.678 34.479,3.235 28.755,1.889 22.667,2.191 16.814,2.203 11.194,2.214 5.592,2.415 0,3 -1.918,3.2 -1.904,0.198 0,0" /></g><g
           transform="translate(230.6709,42.3799)"
           id="g230"><path
             id="path232"
             style="fill:#23c9c9;fill-opacity:1;fill-rule:nonzero;stroke:none"
             d="M 0,0 C 6.944,-0.311 13.717,0.503 20.391,2.435 22.242,2.971 21.455,5.866 19.594,5.328 13.17,3.468 6.676,2.701 0,3 -1.93,3.087 -1.926,0.087 0,0" /></g><g
           transform="translate(261.3218,47.875)"
           id="g234"><path
             id="path236"
             style="fill:#0dd6d6;fill-opacity:1;fill-rule:nonzero;stroke:none"
             d="m 0,0 c 6.695,0.597 12.991,2.517 18.852,5.809 1.684,0.945 0.173,3.538 -1.514,2.59 C 11.938,5.366 6.169,3.55 0,3 -1.908,2.83 -1.926,-0.172 0,0" /></g><g
           transform="translate(290.6714,58.6426)"
           id="g238"><path
             id="path240"
             style="fill:#15e2ed;fill-opacity:1;fill-rule:nonzero;stroke:none"
             d="m 0,0 c 10.543,5.484 21.628,10.47 30.746,18.223 1.473,1.253 -0.658,3.366 -2.121,2.122 C 19.729,12.78 8.771,7.94 -1.514,2.591 -3.228,1.699 -1.712,-0.891 0,0" /></g><g
           transform="translate(341.6875,48.6406)"
           id="g242"><path
             id="path244"
             style="fill:#15e2ed;fill-opacity:1;fill-rule:nonzero;stroke:none"
             d="m 0,0 c -7.059,-8.206 -15.561,-14.663 -25.358,-19.265 -1.746,-0.82 -0.225,-3.408 1.514,-2.59 10.014,4.704 18.75,11.346 25.965,19.734 C 3.374,-0.664 1.261,1.467 0,0" /></g><g
           transform="translate(176.7622,6.2812)"
           id="g246"><path
             id="path248"
             style="fill:#15e8e3;fill-opacity:1;fill-rule:nonzero;stroke:none"
             d="m 0,0 c 3.64,-3.45 9.117,-3.946 13.881,-4.642 6.207,-0.907 12.444,-1.126 18.704,-0.811 1.922,0.097 1.934,3.097 0,3 C 27.689,-2.699 22.803,-2.649 17.922,-2.145 13.193,-1.655 5.789,-1.354 2.121,2.122 0.72,3.449 -1.405,1.332 0,0" /></g><g
           transform="translate(230.8286,2.748)"
           id="g250"><path
             id="path252"
             style="fill:#23c9c9;fill-opacity:1;fill-rule:nonzero;stroke:none"
             d="M 0,0 C 9.25,0.423 18.387,1.553 27.462,3.39 29.353,3.772 28.553,6.664 26.665,6.282 17.854,4.499 8.979,3.41 0,3 -1.923,2.912 -1.934,-0.088 0,0" /></g><g
           transform="translate(272.0371,9.6641)"
           id="g254"><path
             id="path256"
             style="fill:#0dd6d6;fill-opacity:1;fill-rule:nonzero;stroke:none"
             d="m 0,0 c 8.884,1.581 17.359,4.332 25.504,8.205 1.743,0.828 0.223,3.416 -1.514,2.59 C 16.069,7.029 7.833,4.429 -0.798,2.893 -2.695,2.556 -1.891,-0.336 0,0" /></g><g
           transform="translate(217.5527,216.5068)"
           id="g258"><path
             id="path260"
             style="fill:#18816a;fill-opacity:1;fill-rule:nonzero;stroke:none"
             d="M 0,0 564.771,999.922 725.38,890.301 Z" /></g><g
           transform="translate(216.5303,215.4238)"
           id="g262"><path
             id="path264"
             style="fill:#1aa09c;fill-opacity:1;fill-rule:nonzero;stroke:none"
             d="m 0,0 1323.278,1095.834 115.35,-156.543 z" /></g><g
           transform="translate(821.5986,1020.6191)"
           id="g266" /><g
           transform="translate(867.7637,1020.6211)"
           id="g270" /><g
           transform="translate(935.9424,717.2534)"
           id="g274" /><g
           transform="translate(1029.5098,717.2534)"
           id="g278" /></g></g><g
       id="g316"><g
         clip-path="url(#clipPath322)"
         id="g318"><g
           transform="translate(216.6992,214.2539)"
           id="g324"><path
             id="path326"
             style="fill:#13bf65;fill-opacity:1;fill-rule:nonzero;stroke:none"
             d="m 0,0 114.643,1011.562 190.24,-40.25 z" /></g></g></g></g></svg>