<svg id="Layer_1" data-name="Layer 1" xmlns="http://www.w3.org/2000/svg" xmlns:xlink="http://www.w3.org/1999/xlink" viewBox="0 0 1920 1080">
  <defs>
    <style>
      .cls-1, .cls-5, .cls-6, .cls-7, .cls-8 {
        fill: none;
      }

      .cls-2 {
        clip-path: url(#clip-path);
      }

      .cls-3 {
        fill: #0f0c2d;
      }

      .cls-4 {
        clip-path: url(#clip-path-2);
      }

      .cls-5 {
        stroke: #dc9850;
        stroke-width: 15px;
      }

      .cls-6, .cls-7, .cls-8 {
        stroke-miterlimit: 10;
      }

      .cls-6, .cls-7 {
        stroke-width: 5px;
      }

      .cls-6 {
        stroke: url(#linear-gradient);
      }

      .cls-7 {
        stroke: url(#linear-gradient-2);
      }

      .cls-8 {
        stroke-width: 3px;
        stroke: url(#linear-gradient-3);
      }

      .cls-9 {
        fill: #03f982;
      }

      .cls-10 {
        fill: #07ffa0;
      }

      .cls-11 {
        fill: #00f1ab;
      }

      .cls-12 {
        fill: #01ff8c;
      }

      .cls-13 {
        fill: #15e8e3;
      }

      .cls-14 {
        fill: #23c9c9;
      }

      .cls-15 {
        fill: #15e2ed;
      }

      .cls-16 {
        fill: #0dd6d6;
      }

      .cls-17 {
        fill: #18816a;
      }

      .cls-18 {
        fill: #1aa09c;
      }

      .cls-19 {
        fill: #13bf65;
      }
    </style>
    <clipPath id="clip-path">
      <rect class="cls-1" width="1920" height="1080"/>
    </clipPath>
    <clipPath id="clip-path-2">
      <rect class="cls-1" x="1773" y="-1.85" width="146.98" height="653.85"/>
    </clipPath>
    <linearGradient id="linear-gradient" x1="-113.02" y1="835.08" x2="421.23" y2="835.08" gradientTransform="translate(1048.46 705.52) rotate(90)" gradientUnits="userSpaceOnUse">
      <stop offset="0" stop-color="#11ff8d"/>
      <stop offset="1" stop-color="#2fc0cb"/>
    </linearGradient>
    <linearGradient id="linear-gradient-2" x1="93.24" y1="836.51" x2="223.57" y2="836.51" gradientTransform="translate(1052.3 705.06) rotate(90)" xlink:href="#linear-gradient"/>
    <linearGradient id="linear-gradient-3" x1="142.22" y1="834.01" x2="173.87" y2="834.01" gradientTransform="translate(1051.11 703.26) rotate(90)" xlink:href="#linear-gradient"/>
  </defs>
  <title>Dark Website - Web 2</title>
  <g class="cls-2">
    <g>
      <g>
        <rect class="cls-3" x="0.5" y="0.5" width="1919" height="1079"/>
        <path d="M1919,1V1079H1V1H1919m1-1H0V1080H1920V0Z"/>
      </g>
      <g class="cls-4">
        <line class="cls-5" x1="1821.35" y1="617.21" x2="2242.96" y2="195.6"/>
        <line class="cls-5" x1="1821.35" y1="153.05" x2="2242.96" y2="-268.56"/>
        <line class="cls-5" x1="1821.35" y1="211.07" x2="2242.96" y2="-210.54"/>
        <line class="cls-5" x1="1821.35" y1="269.09" x2="2242.96" y2="-152.52"/>
        <line class="cls-5" x1="1821.35" y1="327.11" x2="2242.96" y2="-94.5"/>
        <line class="cls-5" x1="1821.35" y1="385.13" x2="2242.96" y2="-36.48"/>
        <line class="cls-5" x1="1821.35" y1="443.15" x2="2242.96" y2="21.54"/>
        <line class="cls-5" x1="1821.35" y1="501.17" x2="2242.96" y2="79.56"/>
        <line class="cls-5" x1="1821.35" y1="559.19" x2="2242.96" y2="137.58"/>
      </g>
      <g>
        <circle class="cls-6" cx="213.37" cy="859.63" r="264.62" transform="translate(-585.87 477.92) rotate(-50.53)"/>
        <circle class="cls-7" cx="215.78" cy="863.46" r="62.66" transform="translate(-587.95 481.18) rotate(-50.53)"/>
        <circle class="cls-8" cx="217.1" cy="861.3" r="14.32" transform="translate(-585.8 481.41) rotate(-50.53)"/>
        <path class="cls-9" d="M158.13,783.27c7.54-10.21,22.83-14,34.57-16.8a129,129,0,0,1,19.89-3.09c6.43-.49,13.18-1,19.05,2.14,1.71.9,3.22-1.69,1.51-2.59-5.58-2.94-11.59-3.07-17.77-2.74a133.44,133.44,0,0,0-23.49,3.38c-12.65,3-28.26,7.2-36.36,18.18-1.15,1.55,1.45,3.05,2.59,1.51Z"/>
        <path class="cls-10" d="M133.74,753.74A68,68,0,0,1,159.1,738.1c1.81-.63,1-3.53-.8-2.89a71.58,71.58,0,0,0-26.69,16.42c-1.39,1.35.74,3.47,2.12,2.12Z"/>
        <path class="cls-9" d="M170.62,732.81a104,104,0,0,1,25.23-6.33c1.89-.23,1.92-3.23,0-3a107.08,107.08,0,0,0-26,6.43c-1.78.69-1,3.59.8,2.89Z"/>
        <path class="cls-11" d="M209.74,726a59.52,59.52,0,0,1,26.86,1.93c1.85.56,2.64-2.33.8-2.89a63,63,0,0,0-28.46-1.93c-1.9.3-1.09,3.19.8,2.89Z"/>
        <path class="cls-10" d="M111.63,720.73a67.78,67.78,0,0,1,26.84-16.36c1.83-.6,1-3.49-.8-2.89a71.23,71.23,0,0,0-28.16,17.13c-1.38,1.36.75,3.48,2.12,2.12Z"/>
        <path class="cls-12" d="M151.15,697.83a36.68,36.68,0,0,1,17.18-7c1.89-.25,1.91-3.25,0-3a39.61,39.61,0,0,0-18.69,7.44c-1.54,1.13,0,3.74,1.51,2.59Z"/>
        <path class="cls-9" d="M179.4,689.14a37.9,37.9,0,0,1,19.68-3.4c1.92.17,1.91-2.83,0-3a40.88,40.88,0,0,0-21.19,3.81c-1.75.82-.23,3.4,1.51,2.59Z"/>
        <path class="cls-11" d="M213.32,685.7c9.07-2.17,20.34-.32,29.25,1.62,1.88.41,2.69-2.48.8-2.89-9.61-2.09-21.14-3.94-30.85-1.62-1.88.45-1.08,3.34.8,2.89Z"/>
        <path class="cls-10" d="M87.25,690.64A92.17,92.17,0,0,1,117.19,671c1.77-.72,1-3.62-.8-2.89a95.94,95.94,0,0,0-31.26,20.42c-1.38,1.35.74,3.47,2.12,2.12Z"/>
        <path class="cls-12" d="M131.07,662.53a58.42,58.42,0,0,1,26.17-8.11c1.92-.13,1.93-3.13,0-3a62,62,0,0,0-27.69,8.52,1.5,1.5,0,0,0,1.51,2.59Z"/>
        <path class="cls-11" d="M217.18,646.85a67.56,67.56,0,0,1,34.56.41,1.5,1.5,0,0,0,.8-2.89,70.87,70.87,0,0,0-36.16-.41c-1.87.47-1.08,3.36.8,2.89Z"/>
        <path class="cls-9" d="M169.86,650.62c9.6-3.72,20.82-3.61,31-3.39,1.93,0,1.93-3,0-3-10.38-.22-22-.3-31.78,3.5-1.78.69-1,3.59.8,2.89Z"/>
        <path class="cls-13" d="M198.86,957.78a126.87,126.87,0,0,0,76-18c1.65-1,.14-3.59-1.51-2.59a124.09,124.09,0,0,1-74.47,17.55c-1.92-.16-1.91,2.84,0,3Z"/>
        <path class="cls-13" d="M189.55,996.28a74.57,74.57,0,0,0,32.09.43c1.89-.39,1.09-3.28-.8-2.89a70.66,70.66,0,0,1-30.5-.43c-1.88-.44-2.68,2.45-.8,2.89Z"/>
        <path class="cls-14" d="M232.8,995a106.3,106.3,0,0,0,29.29-5.86c1.81-.64,1-3.54-.8-2.89A103.23,103.23,0,0,1,232.8,992c-1.92.11-1.93,3.11,0,3Z"/>
        <path class="cls-15" d="M295.35,967.89a141.85,141.85,0,0,1-19.93,12.94c-1.7.91-.19,3.51,1.51,2.59A146.26,146.26,0,0,0,297.47,970c1.52-1.18-.61-3.29-2.12-2.12Z"/>
        <path class="cls-13" d="M185,1035.86c11.19,1.17,24.24,2.25,35.28-.34,1.88-.44,1.08-3.34-.8-2.89-5.72,1.35-11.81,1-17.67,1a164.66,164.66,0,0,1-16.81-.8c-1.92-.2-1.9,2.8,0,3Z"/>
        <path class="cls-14" d="M230.67,1035.62a62.65,62.65,0,0,0,20.39-2.43,1.5,1.5,0,0,0-.8-2.89,60.12,60.12,0,0,1-19.59,2.33c-1.93-.09-1.93,2.91,0,3Z"/>
        <path class="cls-16" d="M261.32,1030.12a46.49,46.49,0,0,0,18.85-5.81c1.68-.95.17-3.54-1.51-2.59a42.76,42.76,0,0,1-17.34,5.4c-1.91.17-1.93,3.17,0,3Z"/>
        <path class="cls-15" d="M290.67,1019.36c10.54-5.48,21.63-10.47,30.75-18.22,1.47-1.25-.66-3.37-2.12-2.12-8.9,7.56-19.85,12.4-30.14,17.75-1.71.89-.2,3.48,1.51,2.59Z"/>
        <path class="cls-15" d="M341.69,1029.36a75.53,75.53,0,0,1-25.36,19.27c-1.75.82-.22,3.41,1.51,2.59a77.5,77.5,0,0,0,26-19.73c1.25-1.46-.86-3.59-2.12-2.12Z"/>
        <path class="cls-13" d="M176.76,1071.72c3.64,3.45,9.12,3.95,13.88,4.64a95.8,95.8,0,0,0,18.7.81c1.92-.1,1.93-3.1,0-3a95.57,95.57,0,0,1-14.66-.31c-4.73-.49-12.13-.79-15.8-4.27-1.4-1.33-3.53.79-2.12,2.12Z"/>
        <path class="cls-14" d="M230.83,1075.25a179.37,179.37,0,0,0,27.46-3.39c1.89-.38,1.09-3.27-.8-2.89a174.18,174.18,0,0,1-26.66,3.28c-1.92.09-1.93,3.09,0,3Z"/>
        <path class="cls-16" d="M272,1068.34a99.81,99.81,0,0,0,25.5-8.2c1.74-.83.22-3.42-1.51-2.59a96.83,96.83,0,0,1-24.79,7.9c-1.9.34-1.09,3.23.8,2.89Z"/>
      </g>
      <polygon class="cls-17" points="217.55 861.49 782.32 -138.43 942.93 -28.81 217.55 861.49"/>
      <polygon class="cls-18" points="216.53 862.58 1539.81 -233.26 1655.16 -76.71 216.53 862.58"/>
      <polygon class="cls-19" points="216.7 863.75 331.34 -147.82 521.58 -107.57 216.7 863.75"/>
    </g>
  </g>
</svg>
