<svg id="Layer_1" data-name="Layer 1" xmlns="http://www.w3.org/2000/svg" xmlns:xlink="http://www.w3.org/1999/xlink" viewBox="0 0 592.77 433.55">
  <defs>
    <style>
      .cls-1 {
        fill: none;
      }

      .cls-2, .cls-4 {
        fill: #fff;
      }

      .cls-3 {
        clip-path: url(#clip-path);
      }

      .cls-4 {
        font-size: 67.75px;
        font-family: ArialNarrow, Arial Narrow;
      }

      .cls-5 {
        letter-spacing: -0.04em;
      }

      .cls-6 {
        letter-spacing: -0.01em;
      }

      .cls-7 {
        font-size: 15.61px;
        font-family: SofiaProLight, Sofia Pro;
        letter-spacing: 0.02em;
      }
    </style>
    <clipPath id="clip-path" transform="translate(-631.82 -318.89)">
      <path class="cls-1" d="M951.47,617.37,1060.67,322.7a2.56,2.56,0,0,0-2.58-3.7h-18.68a6.09,6.09,0,0,0-5.32,3.7L924.89,617.37a2.56,2.56,0,0,0,2.58,3.7h18.68A6.09,6.09,0,0,0,951.47,617.37Z"/>
    </clipPath>
  </defs>
  <title>Untitled-4</title>
  <g>
    <g>
      <path class="cls-2" d="M796.07,323.24l108.7,293.29a2.93,2.93,0,0,1-2.94,4.23H884.26a7,7,0,0,1-6.08-4.23L769.49,323.24a2.93,2.93,0,0,1,2.94-4.23H790A7,7,0,0,1,796.07,323.24Z" transform="translate(-631.82 -318.89)"/>
      <path class="cls-2" d="M840.75,323.24l86.82,233.46a2.93,2.93,0,0,1-2.94,4.23H907.07a7,7,0,0,1-6.08-4.23L814.17,323.24a2.93,2.93,0,0,1,2.94-4.23h17.56A7,7,0,0,1,840.75,323.24Z" transform="translate(-631.82 -318.89)"/>
      <path class="cls-2" d="M906.73,616.84l108.81-293.61a2.93,2.93,0,0,0-2.94-4.23H995a7,7,0,0,0-6.08,4.23L880.15,616.84a2.93,2.93,0,0,0,2.94,4.23h17.56A7,7,0,0,0,906.73,616.84Z" transform="translate(-631.82 -318.89)"/>
      <path class="cls-2" d="M997.28,616.84,1106.1,323.23a2.93,2.93,0,0,0-2.94-4.23H1085.6a7,7,0,0,0-6.08,4.23L970.71,616.84a2.93,2.93,0,0,0,2.94,4.23h17.56A7,7,0,0,0,997.28,616.84Z" transform="translate(-631.82 -318.89)"/>
      <g class="cls-3">
        <g>
          <path class="cls-2" d="M951.67,616.84l45.84-123.7a2.93,2.93,0,0,0-2.94-4.23H977a7,7,0,0,0-6.08,4.23L925.1,616.84a2.93,2.93,0,0,0,2.94,4.23h17.56A7,7,0,0,0,951.67,616.84Z" transform="translate(-631.82 -318.89)"/>
          <path class="cls-2" d="M1007.49,465.86l52.89-142.74a2.93,2.93,0,0,0-2.94-4.23h-17.56a7,7,0,0,0-6.08,4.23L980.91,465.86a2.93,2.93,0,0,0,2.94,4.23h17.56A7,7,0,0,0,1007.49,465.86Z" transform="translate(-631.82 -318.89)"/>
        </g>
      </g>
    </g>
    <text class="cls-4" transform="translate(9.38 412.77)">V<tspan class="cls-5" x="37.05" y="0" xml:space="preserve"> A</tspan><tspan x="83.46" y="0" xml:space="preserve"> N D</tspan><tspan class="cls-6" x="194.54" y="0"> </tspan><tspan x="209.03" y="0">Y</tspan><tspan class="cls-7" x="246.08" y="-37.75">®</tspan><tspan x="259.03" y="0">H</tspan><tspan class="cls-5" x="299.12" y="0" xml:space="preserve"> A</tspan><tspan x="345.53" y="0" xml:space="preserve"> C K S  V</tspan></text>
  </g>
</svg>
