<svg id="Layer_1" data-name="Layer 1" xmlns="http://www.w3.org/2000/svg" xmlns:xlink="http://www.w3.org/1999/xlink" viewBox="0 0 556.49 417.38">
  <defs>
    <style>
      .cls-1 {
        fill: none;
      }

      .cls-2 {
        fill: #fff;
      }

      .cls-3 {
        clip-path: url(#clip-path);
      }
    </style>
    <clipPath id="clip-path" transform="translate(-431.17 -210.89)">
      <path class="cls-1" d="M736.17,519.29,849,214.82a2.65,2.65,0,0,0-2.66-3.82H827a6.29,6.29,0,0,0-5.49,3.82L708.71,519.29a2.65,2.65,0,0,0,2.66,3.82h19.31A6.29,6.29,0,0,0,736.17,519.29Z"/>
    </clipPath>
  </defs>
  <title>outline logo</title>
  <g>
    <g>
      <path class="cls-2" d="M575.6,215.38l112.31,303a3,3,0,0,1-3,4.37H666.73a7.19,7.19,0,0,1-6.28-4.37l-112.31-303a3,3,0,0,1,3-4.37h18.14A7.19,7.19,0,0,1,575.6,215.38Z" transform="translate(-431.17 -210.89)"/>
      <path class="cls-2" d="M621.76,215.38,711.48,456.6a3,3,0,0,1-3,4.37H690.3A7.2,7.2,0,0,1,684,456.6L594.3,215.38a3,3,0,0,1,3-4.37h18.14A7.2,7.2,0,0,1,621.76,215.38Z" transform="translate(-431.17 -210.89)"/>
      <path class="cls-2" d="M689.94,518.75,802.38,215.37a3,3,0,0,0-3-4.37H781.2a7.19,7.19,0,0,0-6.28,4.37L662.48,518.75a3,3,0,0,0,3,4.37h18.14A7.19,7.19,0,0,0,689.94,518.75Z" transform="translate(-431.17 -210.89)"/>
      <path class="cls-2" d="M783.51,518.75,895.94,215.37a3,3,0,0,0-3-4.37H874.76a7.19,7.19,0,0,0-6.28,4.37L756,518.75a3,3,0,0,0,3,4.37h18.14A7.19,7.19,0,0,0,783.51,518.75Z" transform="translate(-431.17 -210.89)"/>
      <g class="cls-3">
        <g>
          <path class="cls-2" d="M736.38,518.75l47.37-127.82a3,3,0,0,0-3-4.37H762.57a7.19,7.19,0,0,0-6.28,4.37L708.92,518.75a3,3,0,0,0,3,4.37H730.1A7.19,7.19,0,0,0,736.38,518.75Z" transform="translate(-431.17 -210.89)"/>
          <path class="cls-2" d="M794.05,362.74,848.7,215.26a3,3,0,0,0-3-4.37H827.52a7.19,7.19,0,0,0-6.28,4.37L766.59,362.74a3,3,0,0,0,3,4.37h18.14A7.19,7.19,0,0,0,794.05,362.74Z" transform="translate(-431.17 -210.89)"/>
        </g>
      </g>
    </g>
    <g>
      <path class="cls-2" d="M431.17,589.23H437l8.26,29.51,8.1-29.51h5.2L448,627.72h-6.07Z" transform="translate(-431.17 -210.89)"/>
      <path class="cls-2" d="M474.83,627.72l13.73-38.5h6.09l14.18,38.5H502.9L499.25,618h-15l-3.45,9.77Zm11-14.19h12.37l-6-18Z" transform="translate(-431.17 -210.89)"/>
      <path class="cls-2" d="M530.48,627.72v-38.5H536l16.3,28.21V589.23H558v38.5h-5.37l-16.49-28.43v28.43Z" transform="translate(-431.17 -210.89)"/>
      <path class="cls-2" d="M583.61,627.72v-38.5h14.82a16.47,16.47,0,0,1,9.2,2.56,16.1,16.1,0,0,1,5.93,6.92,23.39,23.39,0,0,1,2,9.86,23.75,23.75,0,0,1-1.17,7.58,18.56,18.56,0,0,1-3.32,6.07,14.82,14.82,0,0,1-5.41,4,17.49,17.49,0,0,1-7.22,1.46Zm5.68-4.86h9.15a9.93,9.93,0,0,0,8.45-4q3-4,3-10.31a20.29,20.29,0,0,0-1.25-7.35,11.4,11.4,0,0,0-3.89-5.18,10.3,10.3,0,0,0-6.29-2h-9.15Z" transform="translate(-431.17 -210.89)"/>
      <path class="cls-2" d="M632,589.23h6.59L649,605.05l10.52-15.82h6.59L651.75,610h.06v17.71h-5.68V610Z" transform="translate(-431.17 -210.89)"/>
      <path class="cls-2" d="M673.64,589.6a5.7,5.7,0,1,1-5.63,5.71A5.67,5.67,0,0,1,673.64,589.6Zm0,10.48a4.78,4.78,0,1,0-4.73-4.77A4.72,4.72,0,0,0,673.64,600.08Zm.76-4a1.81,1.81,0,0,0-.39-3.56h-2.15v5.64h.89v-2h.6l1.47,2h1.06Zm-.39-2.68a.92.92,0,0,1,0,1.84h-1.23v-1.84Z" transform="translate(-431.17 -210.89)"/>
      <path class="cls-2" d="M685.34,627.72v-38.5H691v17.11h17.46V589.23h5.68v38.5h-5.68V611H691v16.75Z" transform="translate(-431.17 -210.89)"/>
      <path class="cls-2" d="M735.3,627.72,749,589.23h6.09l14.18,38.5h-5.93L759.72,618h-15l-3.45,9.77Zm11-14.19h12.37l-6-18Z" transform="translate(-431.17 -210.89)"/>
      <path class="cls-2" d="M792.92,622.95q-5.12-5.32-5.12-14.37t5.12-14.42a17.57,17.57,0,0,1,13.3-5.36,18.17,18.17,0,0,1,8,1.74,17.77,17.77,0,0,1,6.17,4.93l-4.15,3.18a12.56,12.56,0,0,0-10-5,11.67,11.67,0,0,0-9.26,4q-3.48,4-3.48,10.93T797,619.46a11.73,11.73,0,0,0,9.26,4,12.56,12.56,0,0,0,10-5l4.15,3.18a17.74,17.74,0,0,1-6.17,4.93,18.15,18.15,0,0,1-8,1.75A17.64,17.64,0,0,1,792.92,622.95Z" transform="translate(-431.17 -210.89)"/>
      <path class="cls-2" d="M842.3,627.72v-38.5H848v16.1l11.84-16.1h6.46l-14.4,19.26,17.4,19.23h-7L848,612.14v15.58Z" transform="translate(-431.17 -210.89)"/>
      <path class="cls-2" d="M886.14,616.65h5.56a6.86,6.86,0,0,0,2,4.76,7.46,7.46,0,0,0,5.62,2,9,9,0,0,0,5.76-1.64,5.82,5.82,0,0,0,2.3-4q.28-5.24-6.65-6.82l-4.89-1.27q-9.39-2.45-9.39-9.87a10.09,10.09,0,0,1,3.45-7.93,13.14,13.14,0,0,1,9-3.05,13,13,0,0,1,8.88,3.08,10.35,10.35,0,0,1,3.51,8.19h-5.56a6,6,0,0,0-2-4.62,7,7,0,0,0-4.89-1.79,7.31,7.31,0,0,0-5.14,1.66,5.58,5.58,0,0,0-1.8,4.3q0,3.74,5.53,5.11l4.83,1.13q11.16,2.6,10.57,12.17a10.68,10.68,0,0,1-1.17,3.87,11.34,11.34,0,0,1-2.59,3.26,12,12,0,0,1-4.19,2.29,18,18,0,0,1-5.67.85,15.45,15.45,0,0,1-5.67-1,11.5,11.5,0,0,1-4.15-2.66A12,12,0,0,1,887,620.9,11.29,11.29,0,0,1,886.14,616.65Z" transform="translate(-431.17 -210.89)"/>
      <path class="cls-2" d="M960.25,589.23h5.85l8.26,29.51,8.1-29.51h5.2l-10.58,38.5H971Z" transform="translate(-431.17 -210.89)"/>
    </g>
  </g>
</svg>
