<svg xmlns="http://www.w3.org/2000/svg" viewBox="0 0 29.91 26.824"><defs><clipPath id="reveal-clip"><rect visibility="visible" width="28.57" height="2.357" x="-28.58" y="-25.973" transform="matrix(.34751 -.93768 -1 0 0 0)" rx="0.35" ry="0.35"></rect></clipPath></defs><g fill="#fff"><rect width="28.54" height="2.357" x=".011" y="-2.238" transform="matrix(.34751 .93768 -1 0 0 0)" rx="0.4" ry="0.4"></rect><rect width="22.89" height="2.357" x=".011" y="-6.2" transform="matrix(.34858 .93728 -1 0 0 0)" rx="0.4" ry="0.4"></rect><rect visibility="visible" width="28.57" height="2.357" x="-28.58" y="-21.988" transform="matrix(.34751 -.93768 -1 0 0 0)" rx="0.4" ry="0.4"></rect><rect visibility="visible" width="28.57" height="2.357" x="-28.58" y="-30.019" transform="matrix(.34751 -.93768 -1 0 0 0)" rx="0.4" ry="0.4"></rect><g clip-path="url(#reveal-clip)"><rect width="12.5" height="2.357" x="-28.58" y="-25.973" transform="matrix(.34748 -.93769 -1 0 0 0)" rx="0.4" ry="0.4"></rect><rect width="14.3" height="2.357" x="-14.3" y="-25.961" transform="matrix(.34748 -.93769 -1 0 0 0)" rx="0.4" ry="0.4"></rect></g></g></svg>