<svg xmlns="http://www.w3.org/2000/svg" viewBox="0 0 475 28"><style>.st0{fill:#2EDCEB;}</style><path class="st0" d="M9.2 5.4c4.6 0 8.3 3.7 8.3 8.4 0 4.6-3.6 8.3-8.3 8.3-4.6 0-8.2-3.8-8.2-8.3-.1-4.7 3.6-8.4 8.2-8.4zm0 13.2c2.7 0 4.8-2.2 4.8-4.9s-2.1-4.9-4.8-4.9c-2.7 0-4.8 2.2-4.8 4.9s2.1 4.9 4.8 4.9zM25.2 10.6c2 0 3.7.9 4.8 2.3l-2.7 1.9c-.4-.7-1.3-1.1-2.1-1.1-1.4 0-2.7 1-2.7 2.6s1.3 2.6 2.7 2.6c.9 0 1.7-.4 2.1-1.1l2.7 1.9c-1 1.5-2.8 2.4-4.8 2.4-3.2 0-6-2.3-6-5.8s2.8-5.7 6-5.7zM38.9 10.8v2.6h-2.3v8.4h-3.3v-8.4h-2v-2.6h2V6.6h3.3v4.2h2.3zM40 16.3c0-3.5 2.6-5.7 5.7-5.7s5.7 2.2 5.7 5.7-2.6 5.7-5.7 5.7-5.7-2.2-5.7-5.7zm8.3 0c0-1.5-1.1-2.5-2.5-2.5-1.3 0-2.5 1-2.5 2.5s1.1 2.5 2.5 2.5c1.3 0 2.5-1 2.5-2.5zM53.9 21.8v-17h3.3v7.4c.5-1 1.9-1.6 3.2-1.6 2.8 0 5.3 2.2 5.3 5.8 0 3.5-2.5 5.7-5.3 5.7-1.4 0-2.7-.6-3.2-1.6v1.4h-3.3zm5.9-2.9c1.4 0 2.6-1 2.6-2.7 0-1.6-1.2-2.6-2.6-2.6-1.3 0-2.6 1-2.6 2.6 0 1.7 1.2 2.7 2.6 2.7zM78.2 19.8c-1.1 1.7-3.2 2.2-5 2.2-3.2 0-5.8-2.3-5.8-5.8s2.6-5.7 5.8-5.7c3.1 0 5.6 2.3 5.6 5.8v1h-8.1c.2 1.3 1.6 1.8 2.7 1.8.9 0 1.9-.3 2.4-1l2.4 1.7zm-2.7-4.5c-.2-1.3-1.4-1.9-2.3-1.9s-2.2.5-2.5 1.9h4.8zM84.4 21.8h-3.3v-11h3.3v2.7c.6-2.1 2-2.9 3.1-2.9.8 0 1.4.1 1.9.4l-.6 3c-.6-.3-1.2-.3-1.7-.3-1.9 0-2.7 1.5-2.7 4.4v3.7zM96 21.8V20l6.4-7.5c.5-.5.8-1.2.8-1.7 0-.8-.7-1.5-1.9-1.5s-2 .9-2.2 2.2l-3-.5c.5-3 2.5-4.8 5.4-4.8 2.7 0 5.1 1.9 5.1 4.7 0 1.5-.7 2.9-1.6 3.9l-3.6 4h4.8v3.1H96zM114.9 6c4.5 0 5.7 3.6 5.7 8s-1.2 8-5.7 8-5.8-3.6-5.8-8 1.3-8 5.8-8zm0 12.9c1.9 0 2.4-2.2 2.4-4.8 0-2.6-.6-4.8-2.4-4.8-1.9 0-2.5 2.2-2.5 4.8 0 2.6.6 4.8 2.5 4.8zM123.5 14.7h8.3v2.6h-8.3v-2.6zM134.5 21.8V20l6.4-7.5c.5-.5.8-1.2.8-1.7 0-.8-.7-1.5-1.9-1.5s-2 .9-2.2 2.2l-3-.5c.5-3 2.5-4.8 5.4-4.8 2.7 0 5.1 1.9 5.1 4.7 0 1.5-.7 2.9-1.6 3.9l-3.6 4h4.8v3.1h-10.2zM147.4 21.8V20l6.4-7.5c.5-.5.8-1.2.8-1.7 0-.8-.7-1.5-1.9-1.5s-2 .9-2.2 2.2l-3-.5c.5-3 2.5-4.8 5.4-4.8 2.7 0 5.1 1.9 5.1 4.7 0 1.5-.7 2.9-1.6 3.9l-3.6 4h4.8v3.1h-10.2zM159.2 24.2c1-1.4 1.9-3.8 1.8-6.1h3.3c0 3.7-1.9 6-3 6.9l-2.1-.8zM172.8 21.8V20l6.4-7.5c.5-.5.8-1.2.8-1.7 0-.8-.7-1.5-1.9-1.5s-2 .9-2.2 2.2l-3-.5c.5-3 2.5-4.8 5.4-4.8 2.7 0 5.1 1.9 5.1 4.7 0 1.5-.7 2.9-1.6 3.9l-3.6 4h4.8v3.1h-10.2zM191.8 6c4.5 0 5.7 3.6 5.7 8s-1.2 8-5.7 8-5.8-3.6-5.8-8 1.2-8 5.8-8zm0 12.9c1.9 0 2.4-2.2 2.4-4.8 0-2.6-.6-4.8-2.4-4.8-1.9 0-2.5 2.2-2.5 4.8 0 2.6.6 4.8 2.5 4.8zM205.8 21.8h-3.3V10.7l-2.6 1.1V9l6-2.8v15.6zM220.5 6.3l-6.8 15.5h-3.8l5.5-12.4h-6.5v-3h11.6zM237.5 20.1c-.7 1.3-2.3 1.9-3.9 1.9-3 0-5.6-2.3-5.6-5.8s2.6-5.7 5.6-5.7c1.5 0 3.1.6 3.9 1.9v-1.7h2.1v11h-2.1v-1.6zm-3.7-7.4c-2 0-3.6 1.4-3.6 3.6s1.6 3.7 3.6 3.7 3.7-1.3 3.7-3.7c0-2.4-1.9-3.6-3.7-3.6zM248.5 10.8v1.8h-2.3v9.2H244v-9.2h-2v-1.8h2V6.6h2.2v4.2h2.3zM260.8 18.1l3.7-12.6h2.3l-4.9 16.3h-2.1l-4.9-16.3h2.3l3.6 12.6zM276.8 20.1c-.7 1.3-2.3 1.9-3.9 1.9-3 0-5.6-2.3-5.6-5.8s2.6-5.7 5.6-5.7c1.5 0 3.1.6 3.9 1.9v-1.7h2.1v11h-2.1v-1.6zm-3.6-7.4c-2 0-3.6 1.4-3.6 3.6s1.6 3.7 3.6 3.7 3.7-1.3 3.7-3.7c-.1-2.4-2-3.6-3.7-3.6zM284.7 21.8h-2.2v-11h2.2v1.7c.7-1.3 2.2-1.9 3.5-1.9 2.7 0 4.3 1.8 4.3 4.9v6.4h-2.2v-6.2c0-1.8-.9-2.9-2.4-2.9-1.6 0-3.1.9-3.1 3.2v5.8zM304.6 20.1c-.7 1.3-2.3 1.9-3.9 1.9-3 0-5.6-2.3-5.6-5.8s2.5-5.7 5.6-5.7c1.6 0 3.2.6 3.9 1.9V4.8h2.2v17h-2.2v-1.7zm-3.7-7.4c-2 0-3.6 1.4-3.6 3.6s1.6 3.7 3.6 3.7c1.9 0 3.7-1.3 3.7-3.7 0-2.4-1.9-3.6-3.7-3.6zM320.7 17.1h-9c.3 1.8 1.7 3 3.6 3 1.3 0 2.6-.6 3.2-1.7.6.2 1.3.5 1.8.7-.9 1.9-3 2.9-5.1 2.9-3.1 0-5.6-2.3-5.6-5.8s2.5-5.7 5.6-5.7 5.5 2.2 5.5 5.7v.9zm-2.1-1.7c-.3-1.8-1.6-3-3.4-3-1.8 0-3.2 1.1-3.5 3h6.9zM325.6 21.8h-2.2v-11h2.2v2.5c.6-1.9 1.6-2.7 3.1-2.7.8 0 1.6.2 1.9.4l-.3 2c-.6-.3-1.2-.4-1.6-.4-2.1 0-3 2.3-3 5.2v4zM335 21.8h-2.2v-17h2.2v7.7c.7-1.3 2.3-1.9 3.9-1.9 3 0 5.6 2.2 5.6 5.7s-2.6 5.8-5.6 5.8c-1.5 0-3.1-.7-3.9-1.9v1.6zm3.7-1.8c2 0 3.6-1.5 3.6-3.7s-1.6-3.6-3.6-3.6c-1.8 0-3.7 1.3-3.7 3.6s1.7 3.7 3.7 3.7zM348.4 5.3c.8 0 1.5.6 1.5 1.4 0 .8-.7 1.4-1.5 1.4s-1.5-.6-1.5-1.4c0-.8.7-1.4 1.5-1.4zm1 5.5h-2.1v11h2.1v-11zM355.2 4.8v17H353v-17h2.2zM364.1 10.8v1.8h-2.3v9.2h-2.2v-9.2h-2v-1.8h2V6.6h2.2v4.2h2.3zM382.2 16.2V5.5h2.2v10.7c0 3.5-2.7 5.8-6 5.8-3.2 0-6-2.3-6-5.8V5.5h2.2v10.7c0 2.2 1.7 3.7 3.7 3.7s3.9-1.4 3.9-3.7zM390.2 21.8H388v-11h2.2v1.7c.7-1.3 2.2-1.9 3.5-1.9 2.7 0 4.3 1.8 4.3 4.9v6.4h-2.2v-6.2c0-1.8-.9-2.9-2.4-2.9-1.6 0-3.1.9-3.1 3.2v5.8zM402.5 5.3c.8 0 1.5.6 1.5 1.4 0 .8-.7 1.4-1.5 1.4s-1.5-.6-1.5-1.4c0-.8.7-1.4 1.5-1.4zm1 5.5h-2.1v11h2.1v-11zM408 10.8l3.4 8.3 3.3-8.3h2.3l-4.6 11h-2.1l-4.6-11h2.3zM429.3 17.1h-9c.3 1.8 1.7 3 3.6 3 1.3 0 2.6-.6 3.2-1.7.6.2 1.3.5 1.8.7-.9 1.9-3 2.9-5.1 2.9-3.1 0-5.6-2.3-5.6-5.8s2.5-5.7 5.6-5.7 5.5 2.2 5.5 5.7v.9zm-2.1-1.7c-.3-1.8-1.6-3-3.4-3-1.8 0-3.2 1.1-3.5 3h6.9zM434.2 21.8H432v-11h2.2v2.5c.6-1.9 1.6-2.7 3.1-2.7.8 0 1.6.2 1.9.4l-.3 2c-.6-.3-1.2-.4-1.6-.4-2.1 0-3 2.3-3 5.2v4zM440.9 13.4c.2-1.6 1.9-2.8 3.8-2.8s3.6.9 3.8 3.1h-2.1c-.1-.8-.9-1.3-1.7-1.3-.8 0-1.5.4-1.7 1-.1.4-.1.6 0 .9.2.4.7.7 1.3.9l1.6.4c2.3.6 2.9 2 2.9 3.2 0 2.1-2 3.3-4.3 3.3-2 0-4-1.3-4.1-3.5h2c.1.5.4 1 .9 1.3.5.3 1 .4 1.7.4 1-.1 1.7-.6 1.7-1.4 0-.8-.7-1.2-1.5-1.4l-1.5-.4c-1.9-.7-3-1.7-2.8-3.7zM452.8 5.3c.8 0 1.5.6 1.5 1.4 0 .8-.7 1.4-1.5 1.4s-1.5-.6-1.5-1.4c0-.8.7-1.4 1.5-1.4zm1 5.5h-2.1v11h2.1v-11zM462.7 10.8v1.8h-2.3v9.2h-2.2v-9.2h-2v-1.8h2V6.6h2.2v4.2h2.3zM465.9 27.2l2.3-5.7-4.4-10.7h2.3l3.3 8 3.3-8h2.3l-6.9 16.4h-2.2z"/></svg>