<svg viewBox="0 0 482 28" xmlns="http://www.w3.org/2000/svg"><defs><style>  .cls-1{fill:#479cae;}</style></defs><title>  Date</title><path class="cls-1" d="M10.3 5a8.3 8.3 0 1 1 0 16.5A8.3 8.3 0 1 1 10.3 5Zm0 13.2a4.9 4.9 0 1 0-4.8-4.9A4.9 4.9 0 0 0 10.3 18.1Z"/><path class="cls-1" d="M26.5 10.1a5.9 5.9 0 0 1 4.9 2.3l-2.7 1.9a2.6 2.6 0 0 0-2.1-1.1 2.6 2.6 0 0 0-2.8 2.6 2.7 2.7 0 0 0 2.8 2.6 2.6 2.6 0 0 0 2.2-1.1l2.7 1.9a5.9 5.9 0 0 1-4.8 2.3 5.8 5.8 0 0 1-6.1-5.7A5.8 5.8 0 0 1 26.5 10.1Z"/><path class="cls-1" d="M40.3 10.4v2.6H38v8.4h-3.3V12.9h-2V10.4h2V6.2H38v4.2Z"/><path class="cls-1" d="M41.5 15.8a5.8 5.8 0 0 1 11.6 0 5.8 5.8 0 0 1-11.6 0Zm8.3 0a2.5 2.5 0 1 0-2.5 2.5A2.5 2.5 0 0 0 49.8 15.8Z"/><path class="cls-1" d="M55.5 21.3V4.4h3.3V11.7a3.7 3.7 0 0 1 3.3-1.6 5.4 5.4 0 0 1 5.4 5.7 5.4 5.4 0 0 1-5.4 5.7 3.7 3.7 0 0 1-3.3-1.6v1.4Zm6-2.8A2.5 2.5 0 0 0 64 15.8a2.6 2.6 0 1 0-5.2 0A2.6 2.6 0 0 0 61.4 18.4Z"/><path class="cls-1" d="M80.1 19.3A6 6 0 0 1 75 21.5a5.6 5.6 0 0 1-5.8-5.7 5.8 5.8 0 0 1 11.5 0.1c0 0.3 0 0.7 0 1H72.5c0.2 1.3 1.6 1.8 2.8 1.8a3.1 3.1 0 0 0 2.4-1Zm-2.7-4.4A2.3 2.3 0 0 0 75.1 13a2.4 2.4 0 0 0-2.5 1.9Z"/><path class="cls-1" d="M86.3 21.3H83V10.4h3.3V13a3.5 3.5 0 0 1 3.2-2.9 4.2 4.2 0 0 1 1.9 0.4l-0.6 2.9a3.8 3.8 0 0 0-1.7-0.3c-1.9 0-2.8 1.5-2.8 4.4Z"/><path class="cls-1" d="M98.1 21.3V19.5L104.5 12a2.8 2.8 0 0 0 0.8-1.7c0-0.8-0.7-1.5-2-1.5a2.3 2.3 0 0 0-2.2 2.1l-3.1-0.5a5.3 5.3 0 0 1 5.5-4.7c2.8 0 5.1 1.9 5.1 4.7A5.9 5.9 0 0 1 107 14.2l-3.6 4h4.8v3.1Z"/><path class="cls-1" d="M117.2 5.7c4.6 0 5.8 3.5 5.8 8s-1.2 7.9-5.8 7.9 -5.8-3.5-5.8-7.9S112.6 5.7 117.2 5.7Zm0 12.7c1.9 0 2.5-2.1 2.5-4.7s-0.6-4.8-2.5-4.8 -2.5 2.2-2.5 4.8S115.3 18.3 117.2 18.3Z"/><path class="cls-1" d="M125.8 14.3h8.4v2.6h-8.4Z"/><path class="cls-1" d="M136.9 21.3V19.5L143.4 12a2.8 2.8 0 0 0 0.8-1.7c0-0.8-0.7-1.5-2-1.5A2.3 2.3 0 0 0 140 10.9L137 10.4a5.3 5.3 0 0 1 5.5-4.7c2.8 0 5.1 1.9 5.1 4.7a5.9 5.9 0 0 1-1.6 3.9l-3.6 4h4.8v3.1Z"/><path class="cls-1" d="M150 21.3V19.5L156.5 12a2.8 2.8 0 0 0 0.8-1.7c0-0.8-0.7-1.5-2-1.5a2.3 2.3 0 0 0-2.2 2.1l-3.1-0.5a5.3 5.3 0 0 1 5.5-4.7c2.8 0 5.1 1.9 5.1 4.7A5.9 5.9 0 0 1 159 14.2l-3.6 4h4.8v3.1Z"/><path class="cls-1" d="M161.9 23.7a10.7 10.7 0 0 0 1.9-6.1h3.4a8.8 8.8 0 0 1-3.1 6.9Z"/><path class="cls-1" d="M175.7 21.3V19.5L182.1 12a2.8 2.8 0 0 0 0.8-1.7c0-0.8-0.7-1.5-2-1.5a2.3 2.3 0 0 0-2.2 2.1l-3.1-0.5a5.3 5.3 0 0 1 5.5-4.7c2.8 0 5.1 1.9 5.1 4.7a5.9 5.9 0 0 1-1.6 3.9l-3.6 4h4.8v3.1Z"/><path class="cls-1" d="M194.8 5.7c4.6 0 5.8 3.5 5.8 8s-1.2 7.9-5.8 7.9S189 18 189 13.6 190.3 5.7 194.8 5.7Zm0 12.7c1.9 0 2.5-2.1 2.5-4.7s-0.6-4.8-2.5-4.8 -2.5 2.2-2.5 4.8S192.9 18.3 194.8 18.3Z"/><path class="cls-1" d="M209 21.3h-3.3v-11l-2.7 1.1V8.6l6-2.8Z"/><path class="cls-1" d="M223.8 6l-6.9 15.3h-3.8L218.7 9H212V6Z"/><path class="cls-1" d="M241 19.6a4.6 4.6 0 0 1-3.9 1.9 5.5 5.5 0 0 1-5.7-5.7 5.5 5.5 0 0 1 5.7-5.7A4.6 4.6 0 0 1 241 12V10.4h2.2V21.3H241Zm-3.7-7.4a3.5 3.5 0 0 0-3.6 3.6 3.7 3.7 0 1 0 3.6-3.6Z"/><path class="cls-1" d="M252.2 10.4v1.8H249.8v9.1h-2.2V12.2h-2v-1.8h2V6.3h2.2v4.1Z"/><path class="cls-1" d="M264.5 17.6l3.7-12.4h2.3l-4.9 16.1h-2.1l-5-16.1h2.3Z"/><path class="cls-1" d="M280.8 19.6a4.6 4.6 0 0 1-3.9 1.9 5.5 5.5 0 0 1-5.7-5.7 5.5 5.5 0 0 1 5.7-5.7A4.6 4.6 0 0 1 280.8 12V10.4h2.2V21.3h-2.1Zm-3.7-7.4a3.5 3.5 0 0 0-3.6 3.6 3.7 3.7 0 1 0 3.6-3.6Z"/><path class="cls-1" d="M288.7 21.3h-2.2V10.4h2.2V12a4 4 0 0 1 3.5-1.9c2.8 0 4.3 1.8 4.3 4.8v6.3h-2.2V15.1c0-1.8-0.9-2.9-2.5-2.9a2.9 2.9 0 0 0-3.1 3.2Z"/><path class="cls-1" d="M308.8 19.6a4.6 4.6 0 0 1-3.9 1.9 5.5 5.5 0 0 1-5.6-5.7 5.5 5.5 0 0 1 5.6-5.7A4.5 4.5 0 0 1 308.8 12V4.4H311V21.3h-2.2Zm-3.7-7.4a3.5 3.5 0 0 0-3.6 3.6 3.7 3.7 0 1 0 3.6-3.6Z"/><path class="cls-1" d="M325.1 16.6h-9a3.4 3.4 0 0 0 3.6 3 3.6 3.6 0 0 0 3.2-1.7c0.6 0.2 1.3 0.5 1.9 0.7a5.8 5.8 0 0 1-10.8-2.8 5.5 5.5 0 0 1 5.7-5.7 5.3 5.3 0 0 1 5.5 5.7C325.1 16 325.1 16.4 325.1 16.6ZM323 15A3.3 3.3 0 0 0 319.6 12 3.4 3.4 0 0 0 316.1 15Z"/><path class="cls-1" d="M330.1 21.3h-2.2V10.4h2.2v2.5c0.6-1.9 1.7-2.7 3.1-2.7a4.2 4.2 0 0 1 1.9 0.4l-0.3 2a4 4 0 0 0-1.6-0.4c-2.1 0-3.1 2.3-3.1 5.2Z"/><path class="cls-1" d="M339.5 21.3h-2.2V4.4h2.2V12a4.5 4.5 0 0 1 3.9-1.9 5.5 5.5 0 0 1 5.6 5.7 5.5 5.5 0 0 1-5.7 5.7 4.5 4.5 0 0 1-3.9-1.9Zm3.7-1.8a3.5 3.5 0 0 0 3.6-3.6 3.5 3.5 0 0 0-3.6-3.6 3.6 3.6 0 1 0 0 7.2Z"/><path class="cls-1" d="M353 5a1.4 1.4 0 0 1 1.5 1.4A1.4 1.4 0 0 1 353 7.7a1.4 1.4 0 0 1-1.5-1.4A1.4 1.4 0 0 1 353 5Zm1.1 5.4H352V21.3h2.2Z"/><path class="cls-1" d="M359.9 4.4V21.3h-2.2V4.4Z"/><path class="cls-1" d="M368.9 10.4v1.8h-2.4v9.1h-2.2V12.2h-2v-1.8h2V6.3h2.2v4.1Z"/><path class="cls-1" d="M387.2 15.7V5.2h2.3V15.7a6 6 0 0 1-12 0V5.2h2.3V15.7a3.8 3.8 0 0 0 7.6 0Z"/><path class="cls-1" d="M395.4 21.3h-2.2V10.4h2.2V12a4 4 0 0 1 3.5-1.9c2.8 0 4.3 1.8 4.3 4.8v6.3H401V15.1c0-1.8-0.9-2.9-2.5-2.9a2.9 2.9 0 0 0-3.1 3.2Z"/><path class="cls-1" d="M407.7 5a1.4 1.4 0 0 1 1.5 1.4 1.4 1.4 0 0 1-1.5 1.4 1.4 1.4 0 0 1-1.5-1.4A1.4 1.4 0 0 1 407.7 5Zm1.1 5.4h-2.1V21.3h2.2Z"/><path class="cls-1" d="M413.3 10.4l3.4 8.2 3.4-8.2h2.3l-4.7 10.9h-2.1L411 10.4Z"/><path class="cls-1" d="M434.8 16.6h-9a3.4 3.4 0 0 0 3.6 3 3.6 3.6 0 0 0 3.2-1.7c0.6 0.2 1.3 0.5 1.9 0.7a5.8 5.8 0 0 1-10.8-2.8 5.5 5.5 0 0 1 5.7-5.7 5.3 5.3 0 0 1 5.5 5.7C434.9 16 434.9 16.4 434.8 16.6ZM432.7 15A3.3 3.3 0 0 0 429.3 12 3.4 3.4 0 0 0 425.8 15Z"/><path class="cls-1" d="M439.8 21.3h-2.2V10.4h2.2v2.5c0.6-1.9 1.7-2.7 3.1-2.7a4.2 4.2 0 0 1 1.9 0.4l-0.3 2a4 4 0 0 0-1.6-0.4c-2.1 0-3.1 2.3-3.1 5.2Z"/><path class="cls-1" d="M446.5 12.9c0.2-1.6 1.9-2.8 3.9-2.8s3.7 0.9 3.9 3.1h-2.1A1.6 1.6 0 0 0 450.4 12a1.7 1.7 0 0 0-1.7 1 1.2 1.2 0 0 0 0 0.9 2 2 0 0 0 1.3 0.8l1.7 0.4c2.3 0.6 2.9 1.9 2.9 3.2 0 2-2 3.3-4.3 3.3 -2 0-4.1-1.3-4.2-3.5h2a1.7 1.7 0 0 0 0.9 1.2 3 3 0 0 0 1.8 0.4c1-0.1 1.7-0.6 1.7-1.4S451.8 17 451 16.8l-1.5-0.3C447.5 15.9 446.3 14.9 446.5 12.9Z"/><path class="cls-1" d="M458.5 5A1.4 1.4 0 0 1 460 6.3a1.4 1.4 0 0 1-1.5 1.4A1.4 1.4 0 0 1 457 6.3 1.4 1.4 0 0 1 458.5 5Zm1.1 5.4h-2.1V21.3h2.2Z"/><path class="cls-1" d="M468.6 10.4v1.8h-2.4v9.1h-2.2V12.2h-2v-1.8h2V6.3h2.2v4.1Z"/><path class="cls-1" d="M471.8 26.6L474.1 21l-4.5-10.6H472l3.3 7.9 3.3-7.9H481L474.1 26.6Z"/></svg>