<?xml version="1.0" encoding="utf-8"?>
<svg version="1.1" id="Layer_1" xmlns="http://www.w3.org/2000/svg" xmlns:xlink="http://www.w3.org/1999/xlink" x="0px" y="0px"
	viewBox="0 0 159.2 191.2" xml:space="preserve">
	<defs>  
		<linearGradient id="logo-gradient" x1="0%" y1="50%" x2="100%" y2="50%" > 
			<!-- #f2595f -->
			<!-- #f2e551 -->
			<stop offset="0%" stop-color="#f2595f">
				<animate attributeName="stop-color" values="#f2595f; #f2e551; #f2595f" dur="8s" repeatCount="indefinite"></animate>
			</stop>
			<stop offset="100%" stop-color="#f2e551">
				<animate attributeName="stop-color" values="#f2e551; #f2595f; #f2e551" dur="8s" repeatCount="indefinite"></animate>
			</stop>
		</linearGradient> 
	</defs>
	<g fill="url('#logo-gradient')"><path d="M95.8,31c-2.3,7.3-0.4,12.1,5.7,15.1c0.9,0.3,1.7,0.7,2.5,1l5.5,2.9c14.7,9.2,18.8,24.3,18.8,32.5
		c0,2.1-0.3,5.9-2.2,6.7c-1.2,0.5-2.4,0.7-3.7,0.7c-2.9,0-6.7-0.8-11.7-1.8c-11.8-2.7-23.9-4.2-36.1-4.6c-8.2,0-16.5,0.4-24.6,1.3
		c-15.7,1.4-28.1,2.6-30.1-5.4c-0.6-2.5-0.1-12.2,6.9-21.1c6-7.6,18.7-16.7,44.9-16.6v0.3v-0.3h0.1c0.9,0,1.8,0,2.8,0
		c7.7-0.4,8.1-5.7,7.9-12c-0.1-2.2-0.1-3.8,0.6-4.8c1.5-2,6-5.5,8.6-6.2c3.2-0.8,7.1-0.7,7.8,2c0.2,0.8-0.3,1.9-1.3,4.2l-0.4,0.8
		M95.6,26l0.2-0.4l0.6-1.3c0.5-0.9,0.9-1.9,1.2-2.9c-0.3-1.1-3.4-1-5.4-0.5s-6.1,3.8-7.4,5.4c-0.3,0.4-0.2,2.2-0.2,3.5
		c0.2,5.1,0.5,13.5-9.9,14.1c-1,0-2,0-2.9,0h-0.1c-20-0.1-35,5.4-43.3,15.8c-7,8.9-6.9,18.1-6.5,19.4c1.5,6.3,13.2,5.2,28,3.8
		c6.8-0.7,14.5-1.4,22.1-1.4c0.9,0,1.9,0,2.8,0c12.3,0.4,24.5,1.9,36.4,4.6c7,1.5,11.7,2.4,14.2,1.3c0.3-0.1,1.1-1.6,1-5.1
		c-0.1-8.6-5-25.2-23-33.3l0,0c-0.8-0.3-1.6-0.7-2.5-1c-0.5-0.2-0.9-0.5-1.3-0.7L97.6,46c-4.8-3.7-5.9-9.3-3.3-16.7l0.4-1.1 M85.6,172.9c-44.2-1.9-62.1-55.8-63.4-80.1l-0.1-1.2L35.6,93v0.9c1,25.3,12.8,50.6,29.4,63.1
		c4.2,2.9,9.1,4.8,14.1,5.6c-2-3.6-3.7-6.8-5.4-10.5c-6.4-13.7-12.2-40.6-10.5-58.7l0.1-0.9l12-0.4l-0.1,1.1
		c-2.2,25.1,3.2,50.2,15.7,72.1c0.8,1.5,0.7,3.2-0.1,4.6C89.6,171.8,87.7,172.9,85.6,172.9z M24.2,93.9c1.8,24.3,19.2,75.3,61.3,77.1
		c1.4,0,2.7-0.8,3.4-2c0.5-0.8,0.5-1.8,0.1-2.7c-12.4-21.9-18-47-16.1-72.1l-8,0.3c-1.3,17.8,4.2,43.5,10.4,56.8
		c2,4.2,3.9,7.8,6.3,12.1l0.9,1.6l-1.9-0.1c-6.2-0.5-12.1-2.6-17.1-6.2c-16.8-12.7-28.9-38.3-30.1-63.8L24.2,93.9z M97.7,167.2l-0.6-1.2c-6.4-13.3-11-27.5-13.7-42c-2.2-12.1-2.2-19.9-2.3-30.7v-1.1l12,0.8l-0.1,1
		c-1.7,14.1-0.7,22.4,0.1,26.3c7.5,1.4,14.2-0.3,23.4-3.9c0.3-6.5-0.3-13-1.8-19.3l-0.3-1.4l10.3,1.3l0.1,0.8
		c1.8,14.9-0.7,38.3-3.3,46.9l-0.3,1l-7.6-2.5l0.2-0.9c1-5.4,2-11.4,2.1-15.2l-2.3,0.8c-6.8,2.5-11.5,4.1-18.6,3.6
		c2.2,10.7,4.5,15.5,10.4,27.6l0.3,0.7L97.7,167.2z M83.2,94.3c0.1,10.2,0.2,17.8,2.2,29.3c2.6,13.9,6.9,27.5,13,40.3l5-4.4
		c-5.8-11.9-8.2-17.1-10.5-28.8l-0.3-1.3l1.3,0.1c7.4,0.8,11.8-0.8,19-3.4l3.7-1.3l1.3-0.4l0.1,1.3c0.2,3.6-0.8,10.1-2,16.1l4,1.3
		c2.3-8.8,4.5-30.4,3-44.3l-5.9-0.7c1.3,6.3,1.8,12.7,1.5,19.1v0.7l-0.6,0.2c-10,3.9-17.4,5.9-25.8,4.1l-0.6-0.1l-0.1-0.6
		c-0.9-3.7-2-12-0.4-26.6L83.2,94.3z"/>
	</g>
</svg>